<?xml version="1.0" encoding="UTF-8"?>
<svg version="1.1" xmlns="http://www.w3.org/2000/svg" width="719" height="118">
<path d="M0 0 C1.21875 1.640625 1.21875 1.640625 1.59375 4.203125 C1.408125 5.4096875 1.408125 5.4096875 1.21875 6.640625 C-1.68235707 8.57469638 -2.75405652 8.90935882 -6.03125 9.390625 C-11.30762881 10.44417363 -13.98163244 12.92185037 -17.78125 16.640625 C-13.49125 16.970625 -9.20125 17.300625 -4.78125 17.640625 C-5.78125 21.640625 -5.78125 21.640625 -7.65625 23.265625 C-10.68652556 24.59894625 -13.03143607 25.04260626 -16.28125 25.515625 C-21.35378909 26.36444346 -23.61965076 27.39504888 -26.78125 31.640625 C-28.84754025 34.60098315 -30.84821938 37.59161793 -32.78125 40.640625 C-32.11738281 40.61742187 -31.45351562 40.59421875 -30.76953125 40.5703125 C-21.99917619 40.39106437 -21.99917619 40.39106437 -17.78125 42.640625 C-18.11125 43.630625 -18.44125 44.620625 -18.78125 45.640625 C-21.58203125 46.7734375 -21.58203125 46.7734375 -25.09375 47.765625 C-26.24488281 48.09820312 -27.39601563 48.43078125 -28.58203125 48.7734375 C-30.16564453 49.20269531 -30.16564453 49.20269531 -31.78125 49.640625 C-32.48121094 49.84300781 -33.18117188 50.04539063 -33.90234375 50.25390625 C-36.15154794 50.71684017 -38.23706594 50.736863 -40.53125 50.703125 C-41.33046875 50.69410156 -42.1296875 50.68507812 -42.953125 50.67578125 C-43.55640625 50.66417969 -44.1596875 50.65257812 -44.78125 50.640625 C-45.37109375 48.72265625 -45.37109375 48.72265625 -45.78125 46.640625 C-45.306875 46.2075 -44.8325 45.774375 -44.34375 45.328125 C-42.4265758 43.64924291 -42.4265758 43.64924291 -42.84375 40.578125 C-42.76061793 35.34080458 -40.90981282 31.36337375 -38.78125 26.640625 C-39.28269531 26.20105469 -39.78414063 25.76148437 -40.30078125 25.30859375 C-40.78933594 24.75816406 -41.27789062 24.20773438 -41.78125 23.640625 C-41.46875 20.953125 -41.46875 20.953125 -40.78125 18.640625 C-39.5025 18.393125 -38.22375 18.145625 -36.90625 17.890625 C-33.63181909 17.15009405 -33.63181909 17.15009405 -31.40625 14.765625 C-31.2 14.064375 -30.99375 13.363125 -30.78125 12.640625 C-30.11458333 11.30729167 -29.44791667 9.97395833 -28.78125 8.640625 C-29.44125 8.310625 -30.10125 7.980625 -30.78125 7.640625 C-30.78125 5.990625 -30.78125 4.340625 -30.78125 2.640625 C-23.62733932 -0.50076013 -6.81467511 -5.20067311 0 0 Z " fill="#0A046F" transform="translate(141.78125,30.359375)"/>
<path d="M0 0 C2.3203125 1.33203125 2.3203125 1.33203125 4 3 C4.99224261 7.96121304 3.8022739 10.73753164 1.125 14.8125 C-0.48640257 17.07391279 -2.03491798 19.03491798 -4 21 C-5.32 21 -6.64 21 -8 21 C-6.125 17.125 -6.125 17.125 -5 16 C-4.95936168 14.33382885 -4.957279 12.66611905 -5 11 C-14.05275399 14.97266486 -18.90503343 18.88833595 -23.21875 27.8984375 C-24.46551745 31.25224195 -24.74572114 34.44009602 -25 38 C-21.26527625 39.39722606 -19.17172558 38.54924064 -15.5625 37.0625 C-11.83116577 35.53156315 -9.04551058 34.75770989 -5 35 C-7.09925101 38.99890111 -9.19496716 41.18309833 -12.9375 43.6875 C-13.79214844 44.26886719 -14.64679688 44.85023437 -15.52734375 45.44921875 C-21.47804409 49.18133255 -25.97700603 49.68771158 -33 49 C-36.74030185 47.39701349 -37.73158465 46.40262302 -40 43 C-41.66251753 33.93490444 -38.13052054 25.02250989 -33.390625 17.41796875 C-24.97127841 6.08274754 -14.78361436 -2.34425885 0 0 Z " fill="#0A046F" transform="translate(175,30)"/>
<path d="M0 0 C0.94230469 -0.020625 1.88460937 -0.04125 2.85546875 -0.0625 C9.23881884 -0.09831122 13.83685367 0.52479859 18.6875 5.0625 C19.75 7.25 19.75 7.25 19.875 10.0625 C16.86118564 18.60164069 9.11415588 21.89030722 1.43725586 25.58544922 C0.14763701 26.19488545 -1.14395056 26.80018864 -2.43823242 27.3996582 C-3.03611572 27.680271 -3.63399902 27.96088379 -4.25 28.25 C-4.93868164 28.54100586 -5.62736328 28.83201172 -6.33691406 29.13183594 C-8.59876045 30.45384416 -9.29344459 31.5384329 -10.50390625 33.83984375 C-10.88353516 34.54173828 -11.26316406 35.24363281 -11.65429688 35.96679688 C-12.03650391 36.69962891 -12.41871094 37.43246094 -12.8125 38.1875 C-13.57996959 39.63659533 -14.35195925 41.08330767 -15.12890625 42.52734375 C-15.4647876 43.16921631 -15.80066895 43.81108887 -16.14672852 44.47241211 C-17.35169018 46.41384293 -18.46913937 47.81311644 -20.25 49.25 C-26.38846154 49.68076923 -26.38846154 49.68076923 -29.25 48.25 C-28.82114948 42.15873429 -26.85845243 38.29895579 -23.625 33.1875 C-19.05723839 25.72188458 -15.02822226 18.1442326 -11.25 10.25 C-11.889375 9.981875 -12.52875 9.71375 -13.1875 9.4375 C-15.25 8.25 -15.25 8.25 -16.25 5.25 C-10.89536127 -0.28312669 -7.45240666 0.04012063 0 0 Z M0.75 9.25 C-1.43737171 11.88118625 -3.25 14.7362773 -3.25 18.25 C2.08236275 16.94942372 6.17598654 14.4055837 9.75 10.25 C9.75 9.26 9.75 8.27 9.75 7.25 C6.36761597 7.25 3.89914099 8.00120271 0.75 9.25 Z " fill="#0A046E" transform="translate(200.25,29.75)"/>
<path d="M0 0 C2.2890625 0.3125 2.2890625 0.3125 3.2890625 1.3125 C4.04506834 10.33956971 1.88350435 18.49827839 -0.33642578 27.1730957 C-0.96288802 29.63265797 -1.56250884 32.09775032 -2.16015625 34.56445312 C-2.55570289 36.14362797 -2.95278487 37.72241921 -3.3515625 39.30078125 C-3.52778137 40.03106033 -3.70400024 40.76133942 -3.88555908 41.51374817 C-5.04253308 45.93939069 -6.44888762 49.07188021 -9.7109375 52.3125 C-12.90701985 52.83430936 -14.72857069 52.99948545 -17.42578125 51.11328125 C-19.25217696 48.55410672 -18.71744268 47.0516937 -18.2109375 44 C-17.60367697 39.1802691 -17.90841069 36.46023968 -20.7109375 32.3125 C-24.68111399 36.04205973 -27.76672545 40.03702361 -30.8671875 44.51953125 C-32.7109375 46.3125 -32.7109375 46.3125 -35.4296875 46.57421875 C-36.1825 46.48785156 -36.9353125 46.40148437 -37.7109375 46.3125 C-37.29774615 40.59815158 -34.99586675 37.34855532 -31.6484375 32.9375 C-31.17599609 32.29683594 -30.70355469 31.65617187 -30.21679688 30.99609375 C-29.05798555 29.42760165 -27.88578681 27.86901542 -26.7109375 26.3125 C-27.3709375 26.3125 -28.0309375 26.3125 -28.7109375 26.3125 C-29.8359375 22.5625 -29.8359375 22.5625 -28.7109375 20.3125 C-26.0709375 20.6425 -23.4309375 20.9725 -20.7109375 21.3125 C-20.44410156 20.72855469 -20.17726563 20.14460938 -19.90234375 19.54296875 C-17.80752938 15.62120152 -14.71182018 12.56298351 -11.7109375 9.3125 C-10.95683594 8.48105469 -10.20273438 7.64960937 -9.42578125 6.79296875 C-8.26755859 5.56513672 -8.26755859 5.56513672 -7.0859375 4.3125 C-6.37179688 3.549375 -5.65765625 2.78625 -4.921875 2 C-2.7109375 0.3125 -2.7109375 0.3125 0 0 Z M-9.7109375 15.3125 C-8.7109375 17.3125 -8.7109375 17.3125 -8.7109375 17.3125 Z M-10.7109375 17.3125 C-11.7009375 18.3025 -12.6909375 19.2925 -13.7109375 20.3125 C-13.3809375 20.9725 -13.0509375 21.6325 -12.7109375 22.3125 C-11.7209375 21.3225 -10.7309375 20.3325 -9.7109375 19.3125 C-10.0409375 18.6525 -10.3709375 17.9925 -10.7109375 17.3125 Z M-15.7109375 26.3125 C-16.0409375 27.6325 -16.3709375 28.9525 -16.7109375 30.3125 C-15.7209375 30.6425 -14.7309375 30.9725 -13.7109375 31.3125 C-13.3809375 29.6625 -13.0509375 28.0125 -12.7109375 26.3125 C-13.7009375 26.3125 -14.6909375 26.3125 -15.7109375 26.3125 Z " fill="#0B056B" transform="translate(93.7109375,29.6875)"/>
<path d="M0 0 C2.5 -0.375 2.5 -0.375 5 0 C7.973144 4.459716 6.87450417 7.85449422 6 13 C4.99321032 17.74531881 3.86433136 22.4500375 2.67138672 27.15161133 C2.12234375 29.32300512 1.58989524 31.49803366 1.05859375 33.67382812 C0.70931844 35.07055921 0.35909163 36.46705278 0.0078125 37.86328125 C-0.46180908 39.73947144 -0.46180908 39.73947144 -0.94091797 41.65356445 C-2.26731488 45.84464846 -3.89393742 48.89393742 -7 52 C-10 52.25 -10 52.25 -13 52 C-13.66 51.34 -14.32 50.68 -15 50 C-14.8359375 47.8984375 -14.8359375 47.8984375 -14.375 45.375 C-13.64099059 39.70085982 -15.05666065 36.81637348 -18 32 C-21.54919443 35.39386864 -24.29852957 39.07285746 -27.12109375 43.07421875 C-29.36885474 45.37805694 -30.84826235 45.68104199 -34 46 C-34.495 44.515 -34.495 44.515 -35 43 C-33.92578125 40.9140625 -33.92578125 40.9140625 -32.3125 38.625 C-31.76078125 37.82449219 -31.2090625 37.02398437 -30.640625 36.19921875 C-29 34 -29 34 -26.5625 31.4375 C-24.1922249 27.73987084 -25.14100533 25.22339047 -26 21 C-23.84318896 20.44082677 -21.77650369 19.97134663 -19.5625 19.6875 C-16.48450214 18.8616957 -15.63830265 17.91109839 -13.6875 15.4375 C-10.56442358 11.6295384 -7.23525367 8.18660129 -3.69921875 4.76171875 C-1.80910864 2.90690694 -1.80910864 2.90690694 0 0 Z M-7 16 C-8.36176581 17.98075027 -9.69593116 19.98079663 -11 22 C-8.9837767 21.28436734 -8.9837767 21.28436734 -7 20 C-6.19471111 17.94999129 -6.19471111 17.94999129 -6 16 C-6.33 16 -6.66 16 -7 16 Z M-12 26 C-12.66 26.66 -13.32 27.32 -14 28 C-13.01 29.32 -12.02 30.64 -11 32 C-10.67 30.02 -10.34 28.04 -10 26 C-10.66 26 -11.32 26 -12 26 Z " fill="#0B056B" transform="translate(54,30)"/>
<path d="M0 0 C1.051875 0.144375 2.10375 0.28875 3.1875 0.4375 C4.2878418 2.18139648 4.2878418 2.18139648 5.1875 4.4375 C4.67114258 6.42602539 4.67114258 6.42602539 3.58203125 8.53515625 C2.9794751 9.7247998 2.9794751 9.7247998 2.36474609 10.93847656 C1.91437988 11.7837793 1.46401367 12.62908203 1 13.5 C0.32445068 14.80855957 0.32445068 14.80855957 -0.36474609 16.14355469 C-5.20643219 25.41416025 -10.45556511 34.4570274 -15.8125 43.4375 C-14.90226074 42.94854248 -14.90226074 42.94854248 -13.97363281 42.44970703 C-11.34121438 41.21676455 -9.45336313 41.23642465 -6.5625 41.3125 C-5.22445312 41.33957031 -5.22445312 41.33957031 -3.859375 41.3671875 C-3.18390625 41.39039063 -2.5084375 41.41359375 -1.8125 41.4375 C-1.828125 43.2734375 -1.828125 43.2734375 -2.8125 45.4375 C-5.43940105 46.52304587 -7.83767663 47.33332192 -10.5625 48.0625 C-11.99527544 48.46965561 -13.42757952 48.87847409 -14.859375 49.2890625 C-15.54233643 49.48032715 -16.22529785 49.6715918 -16.92895508 49.86865234 C-18.9923249 50.46017702 -18.9923249 50.46017702 -21.62109375 51.578125 C-24.42566925 52.67795853 -26.82935836 52.57625077 -29.8125 52.4375 C-29.1525 51.1175 -28.4925 49.7975 -27.8125 48.4375 C-27.1525 48.4375 -26.4925 48.4375 -25.8125 48.4375 C-26.1425 47.7775 -26.4725 47.1175 -26.8125 46.4375 C-27.20373248 41.13341376 -26.44706635 37.8185535 -24 33.125 C-23.69594238 32.54032959 -23.39188477 31.95565918 -23.07861328 31.35327148 C-18.72756552 23.1596154 -13.84417277 15.22814601 -8.8125 7.4375 C-8.37881104 6.75276611 -7.94512207 6.06803223 -7.49829102 5.36254883 C-4.26225988 0.48911179 -4.26225988 0.48911179 0 0 Z " fill="#0A046F" transform="translate(234.8125,30.5625)"/>
<path d="M0 0 C0.99 0 1.98 0 3 0 C3 4.95 3 9.9 3 15 C5.31 15 7.62 15 10 15 C10.33 10.38 10.66 5.76 11 1 C12.32 0.67 13.64 0.34 15 0 C15.97403725 3.26225174 16.13415799 6.22738661 16.125 9.625 C16.12886719 11.06746094 16.12886719 11.06746094 16.1328125 12.5390625 C16 15 16 15 15 17 C15.66 17 16.32 17 17 17 C17.04898438 16.27554688 17.09796875 15.55109375 17.1484375 14.8046875 C17.55206152 9.58541133 18.01275807 4.90186342 20 0 C20.99 0.33 21.98 0.66 23 1 C24.1875 4.0625 24.1875 4.0625 25 7 C26.54571278 4.68143083 27.79618552 2.49361571 29 0 C29.66 0 30.32 0 31 0 C31.99 3.63 32.98 7.26 34 11 C34.33 7.7 34.66 4.4 35 1 C36.32 0.67 37.64 0.34 39 0 C39 5.94 39 11.88 39 18 C36.36 18 33.72 18 31 18 C30.34 16.35 29.68 14.7 29 13 C28.01 14.98 27.02 16.96 26 19 C23.7522025 16.94766315 22.9977758 15.99332739 22 13 C21.34 14.65 20.68 16.3 20 18 C13.07 18 6.14 18 -1 18 C-1.020625 15.215625 -1.04125 12.43125 -1.0625 9.5625 C-1.071604 8.68408447 -1.08070801 7.80566895 -1.09008789 6.90063477 C-1.09723091 4.93354026 -1.05031893 2.96646379 -1 1 C-0.67 0.67 -0.34 0.34 0 0 Z " fill="#0F0D63" transform="translate(570,60)"/>
<path d="M0 0 C0.99 0 1.98 0 3 0 C4.65 4.29 6.3 8.58 8 13 C8.144375 11.040625 8.28875 9.08125 8.4375 7.0625 C8.875 1.125 8.875 1.125 10 0 C12.26500305 -0.20511024 14.53904377 -0.31412476 16.8125 -0.375 C18.67841797 -0.44847656 18.67841797 -0.44847656 20.58203125 -0.5234375 C24 0 24 0 26.44921875 2.5234375 C26.96097656 3.34070312 27.47273438 4.15796875 28 5 C28.99 3.35 29.98 1.7 31 0 C32.32 0.33 33.64 0.66 35 1 C34.0409375 2.7015625 34.0409375 2.7015625 33.0625 4.4375 C30.80237891 8.90183812 30.22937207 13.04556318 30 18 C28.35 18 26.7 18 25 18 C24.92652344 17.06027344 24.92652344 17.06027344 24.8515625 16.1015625 C24.77679688 15.28429688 24.70203125 14.46703125 24.625 13.625 C24.55539062 12.81289063 24.48578125 12.00078125 24.4140625 11.1640625 C24.17107412 8.79665809 24.17107412 8.79665809 22 7 C20.67993427 9.16924452 20.67993427 9.16924452 20 12 C21.26638076 15.28441679 21.26638076 15.28441679 23 18 C19.75791433 17.64950425 18.38472296 17.43778819 16.1875 14.9375 C15.795625 14.298125 15.40375 13.65875 15 13 C14.67 14.65 14.34 16.3 14 18 C11.03 18 8.06 18 5 18 C4.67 17.01 4.34 16.02 4 15 C1.52733235 15.34444881 1.52733235 15.34444881 -1 16 C-1.33 16.66 -1.66 17.32 -2 18 C-3.65 18 -5.3 18 -7 18 C-4.69 12.06 -2.38 6.12 0 0 Z M14 3 C13.67 3.99 13.34 4.98 13 6 C13.33 6.66 13.66 7.32 14 8 C14.99 8 15.98 8 17 8 C16.67 6.35 16.34 4.7 16 3 C15.34 3 14.68 3 14 3 Z M1 8 C0.67 9.32 0.34 10.64 0 12 C0.99 11.67 1.98 11.34 3 11 C2.34 10.01 1.68 9.02 1 8 Z " fill="#100E66" transform="translate(301,32)"/>
<path d="M0 0 C0.66 0 1.32 0 2 0 C3.98 4.95 5.96 9.9 8 15 C8.33 10.05 8.66 5.1 9 0 C17.66666667 0 26.33333333 0 35 0 C35 0.99 35 1.98 35 3 C33.35 3 31.7 3 30 3 C30 7.95 30 12.9 30 18 C28.35 18 26.7 18 25 18 C25 13.05 25 8.1 25 3 C23.68 3 22.36 3 21 3 C21.04125 3.7425 21.0825 4.485 21.125 5.25 C20.99601866 8.08758952 20.42948778 9.58773938 19 12 C19.495 12.61875 19.99 13.2375 20.5 13.875 C22 16 22 16 22 18 C19.6875 17.8125 19.6875 17.8125 17 17 C15.1875 14.4375 15.1875 14.4375 14 12 C13.67 13.98 13.34 15.96 13 18 C10.03 18 7.06 18 4 18 C4 17.01 4 16.02 4 15 C2.02 15 0.04 15 -2 15 C-2.33 15.99 -2.66 16.98 -3 18 C-4.32 18 -5.64 18 -7 18 C-5.06375702 11.79522136 -2.74390859 5.89174281 0 0 Z M13 3 C13 4.65 13 6.3 13 8 C14.32 7.67 15.64 7.34 17 7 C16.34 5.68 15.68 4.36 15 3 C14.34 3 13.68 3 13 3 Z M0 9 C0 9.99 0 10.98 0 12 C0.66 12 1.32 12 2 12 C1.67 11.01 1.34 10.02 1 9 C0.67 9 0.34 9 0 9 Z " fill="#100D68" transform="translate(363,32)"/>
<path d="M0 0 C3.34998521 1.11666174 3.79340222 1.74694925 5.6875 4.5625 C6.12449219 5.20316406 6.56148438 5.84382813 7.01171875 6.50390625 C7.33785156 6.99761719 7.66398437 7.49132812 8 8 C8.33 5.69 8.66 3.38 9 1 C13.09814748 0.01052333 16.91639287 -0.10270962 21.125 -0.0625 C22.34445312 -0.05347656 23.56390625 -0.04445312 24.8203125 -0.03515625 C26.39425781 -0.01775391 26.39425781 -0.01775391 28 0 C30.02126284 0 32.04291874 -0.04256811 34.0625 -0.125 C37 0 37 0 39 2 C38.67 2.66 38.34 3.32 38 4 C36.35 4 34.7 4 33 4 C33 4.66 33 5.32 33 6 C33.99 6.5775 34.98 7.155 36 7.75 C39 10 39 10 39.625 13.0625 C39 16 39 16 37.375 17.9375 C34.23872457 19.34057059 32.27549981 18.81887495 29 18 C29 17.01 29 16.02 29 15 C30.65 15 32.3 15 34 15 C34 14.01 34 13.02 34 12 C33.195625 11.566875 32.39125 11.13375 31.5625 10.6875 C29 9 29 9 28.1875 5.8125 C28.125625 4.884375 28.06375 3.95625 28 3 C26.35 3 24.7 3 23 3 C23 7.95 23 12.9 23 18 C21.68 18 20.36 18 19 18 C19 13.05 19 8.1 19 3 C17.02 3 15.04 3 13 3 C13 7.95 13 12.9 13 18 C12.01 18 11.02 18 10 18 C8.61328125 16.46875 8.61328125 16.46875 7.3125 14.5 C6.65701172 13.52546875 6.65701172 13.52546875 5.98828125 12.53125 C5.49908203 11.77328125 5.49908203 11.77328125 5 11 C4.67 13.31 4.34 15.62 4 18 C2.68 18 1.36 18 0 18 C0 12.06 0 6.12 0 0 Z " fill="#100D62" transform="translate(430,60)"/>
<path d="M0 0 C3.2296738 -0.08111739 6.45730014 -0.14055592 9.6875 -0.1875 C11.05551758 -0.22520508 11.05551758 -0.22520508 12.45117188 -0.26367188 C21.00895523 -0.35702951 21.00895523 -0.35702951 25 3 C26.61095977 6.22191953 26.44749207 9.50689029 26 13 C24.625 16 24.625 16 22 18 C18.55556947 18.41570713 15.49230243 18.22975674 12 18 C12 13.05 12 8.1 12 3 C9.36 3 6.72 3 4 3 C4 4.32 4 5.64 4 7 C5.65 7 7.3 7 9 7 C9 7.99 9 8.98 9 10 C7.35 10 5.7 10 4 10 C4 11.65 4 13.3 4 15 C6.31 15 8.62 15 11 15 C11 15.99 11 16.98 11 18 C7.37 18 3.74 18 0 18 C0 12.06 0 6.12 0 0 Z M17 3 C16.67 6.96 16.34 10.92 16 15 C17.65 14.67 19.3 14.34 21 14 C22.43060128 11.13879744 22.38692581 9.15989415 22 6 C20.35 5.01 18.7 4.02 17 3 Z " fill="#0E0C65" transform="translate(626,60)"/>
<path d="M0 0 C0.66 0 1.32 0 2 0 C3.98 4.95 5.96 9.9 8 15 C8.33 10.05 8.66 5.1 9 0 C12.34998521 1.11666174 12.79340222 1.74694925 14.6875 4.5625 C15.34298828 5.52349609 15.34298828 5.52349609 16.01171875 6.50390625 C16.33785156 6.99761719 16.66398437 7.49132813 17 8 C17.33 5.69 17.66 3.38 18 1 C19.32 1 20.64 1 22 1 C22 6.94 22 12.88 22 19 C17.61364256 16.80682128 16.48743095 15.08649371 14 11 C13.67 13.31 13.34 15.62 13 18 C10.03 18 7.06 18 4 18 C3.67 17.34 3.34 16.68 3 16 C0.47266765 15.34444881 0.47266765 15.34444881 -2 15 C-2.33 15.99 -2.66 16.98 -3 18 C-4.32 18 -5.64 18 -7 18 C-5.06375702 11.79522136 -2.74390859 5.89174281 0 0 Z M0 9 C0 9.99 0 10.98 0 12 C0.66 12 1.32 12 2 12 C1.67 11.01 1.34 10.02 1 9 C0.67 9 0.34 9 0 9 Z " fill="#110D67" transform="translate(464,32)"/>
<path d="M0 0 C0.33 1.98 0.66 3.96 1 6 C-1.08108685 6.67364661 -3.1649671 7.33866798 -5.25 8 C-6.41015625 8.37125 -7.5703125 8.7425 -8.765625 9.125 C-12 10 -12 10 -16 10 C-16 10.99 -16 11.98 -16 13 C-17.32 13.33 -18.64 13.66 -20 14 C-20 14.66 -20 15.32 -20 16 C-24.75 15.25 -24.75 15.25 -27 13 C-26.34 12.34 -25.68 11.68 -25 11 C-25 9.68 -25 8.36 -25 7 C-24.34 6.34 -23.68 5.68 -23 5 C-23 4.34 -23 3.68 -23 3 C-24.98 3.99 -24.98 3.99 -27 5 C-27 4.01 -27 3.02 -27 2 C-26.28972656 1.93941406 -25.57945313 1.87882812 -24.84765625 1.81640625 C-23.46900391 1.69072266 -23.46900391 1.69072266 -22.0625 1.5625 C-21.14597656 1.48128906 -20.22945313 1.40007813 -19.28515625 1.31640625 C-17.03840268 1.23955024 -17.03840268 1.23955024 -16 0 C-13.88103187 -0.262682 -11.75384336 -0.46051983 -9.625 -0.625 C-8.46226562 -0.72039063 -7.29953125 -0.81578125 -6.1015625 -0.9140625 C-3 -1 -3 -1 0 0 Z " fill="#080274" transform="translate(140,31)"/>
<path d="M0 0 C8.58 0 17.16 0 26 0 C26.33 0.99 26.66 1.98 27 3 C24.36 3 21.72 3 19 3 C19 4.32 19 5.64 19 7 C20.65 7 22.3 7 24 7 C24.33 7.99 24.66 8.98 25 10 C23.02 10 21.04 10 19 10 C19 11.65 19 13.3 19 15 C21.31 15 23.62 15 26 15 C26.33 15.99 26.66 16.98 27 18 C23.04 18 19.08 18 15 18 C15 13.05 15 8.1 15 3 C13.02 3 11.04 3 9 3 C9 7.95 9 12.9 9 18 C7.68 18 6.36 18 5 18 C5 13.05 5 8.1 5 3 C3.02 3 1.04 3 -1 3 C-0.67 2.01 -0.34 1.02 0 0 Z " fill="#0D0A62" transform="translate(534,60)"/>
<path d="M0 0 C1.25554687 -0.03738281 2.51109375 -0.07476563 3.8046875 -0.11328125 C7.125 0.3125 7.125 0.3125 9.0703125 2.20703125 C10.125 4.3125 10.125 4.3125 10.125 6.3125 C10.785 6.3125 11.445 6.3125 12.125 6.3125 C12.3725 5.508125 12.62 4.70375 12.875 3.875 C14.125 1.3125 14.125 1.3125 16.25 0.5 C16.86875 0.438125 17.4875 0.37625 18.125 0.3125 C17.06624926 3.71562738 16.11597846 6.32603231 14.125 9.3125 C13.67105448 11.59162938 13.67105448 11.59162938 13.5 14 C13.42523438 14.80824219 13.35046875 15.61648437 13.2734375 16.44921875 C13.22445313 17.06410156 13.17546875 17.67898437 13.125 18.3125 C11.805 18.3125 10.485 18.3125 9.125 18.3125 C9.00382812 17.64863281 8.88265625 16.98476563 8.7578125 16.30078125 C7.89952292 11.77825541 7.08528689 7.51311476 5.125 3.3125 C2.155 3.3125 -0.815 3.3125 -3.875 3.3125 C-3.875 4.6325 -3.875 5.9525 -3.875 7.3125 C-2.225 7.3125 -0.575 7.3125 1.125 7.3125 C1.455 8.3025 1.785 9.2925 2.125 10.3125 C0.145 10.3125 -1.835 10.3125 -3.875 10.3125 C-3.875 11.9625 -3.875 13.6125 -3.875 15.3125 C-1.565 15.3125 0.745 15.3125 3.125 15.3125 C3.455 16.3025 3.785 17.2925 4.125 18.3125 C0.165 18.3125 -3.795 18.3125 -7.875 18.3125 C-7.90184312 15.49993719 -7.92176188 12.68762759 -7.9375 9.875 C-7.94587891 9.07255859 -7.95425781 8.27011719 -7.96289062 7.44335938 C-7.9715143 5.39954779 -7.9272815 3.35566098 -7.875 1.3125 C-5.93759347 -0.62490653 -2.57340128 0.0499945 0 0 Z " fill="#0F0B66" transform="translate(495.875,31.6875)"/>
<path d="M0 0 C3.3 0 6.6 0 10 0 C11.03159626 3.09478879 10.97482862 4.52631393 10.5625 7.6875 C10.46066406 8.49574219 10.35882813 9.30398437 10.25390625 10.13671875 C10.17011719 10.75160156 10.08632812 11.36648437 10 12 C10.61359375 11.81566406 11.2271875 11.63132812 11.859375 11.44140625 C14.57817796 10.88077717 15.6786882 11.59063212 18 13 C17 16 17 16 15 19 C9.97978692 19.82633596 4.45913489 19.5891751 0 17 C-1.35827701 14.28344597 -1.1323445 12.09210594 -1.125 9.0625 C-1.12757813 8.00160156 -1.13015625 6.94070312 -1.1328125 5.84765625 C-1 3 -1 3 0 0 Z " fill="#080274" transform="translate(138,58)"/>
<path d="M0 0 C8 0 8 0 10.5 1.1875 C12 3 12 3 12.375 5.5 C12 8 12 8 10 11 C10.99 12.65 11.98 14.3 13 16 C13.33 11.05 13.66 6.1 14 1 C15.32 0.67 16.64 0.34 18 0 C18 5.94 18 11.88 18 18 C15.03 18 12.06 18 9 18 C6.4375 15 6.4375 15 5 12 C4.67 13.98 4.34 15.96 4 18 C2.68 18 1.36 18 0 18 C0 12.06 0 6.12 0 0 Z M4 3 C4 4.65 4 6.3 4 8 C5.32 7.67 6.64 7.34 8 7 C8 6.01 8 5.02 8 4 C6.68 3.67 5.36 3.34 4 3 Z " fill="#110D61" transform="translate(491,60)"/>
<path d="M0 0 C0 1.65 0 3.3 0 5 C-0.33 4.34 -0.66 3.68 -1 3 C-2.32 3.33 -3.64 3.66 -5 4 C-5.33 5.32 -5.66 6.64 -6 8 C-5.34 8 -4.68 8 -4 8 C-2.875 11.75 -2.875 11.75 -4 14 C-4.35919321 15.99551782 -4.69496569 17.99548879 -5 20 C-5.66 20 -6.32 20 -7 20 C-7.66 21.32 -8.32 22.64 -9 24 C-10.32 23.67 -11.64 23.34 -13 23 C-13.33 17.39 -13.66 11.78 -14 6 C-12.68 6 -11.36 6 -10 6 C-9.34 4.02 -8.68 2.04 -8 0 C-2.25 -1.125 -2.25 -1.125 0 0 Z " fill="#080273" transform="translate(54,57)"/>
<path d="M0 0 C2.93200474 2.85276137 5.64315404 5.65079784 8 9 C8.33 6.03 8.66 3.06 9 0 C10.32 0.33 11.64 0.66 13 1 C13 6.61 13 12.22 13 18 C12.01 18 11.02 18 10 18 C8.39453125 16.25 8.39453125 16.25 6.8125 14 C6.28269531 13.2575 5.75289062 12.515 5.20703125 11.75 C4.60955078 10.88375 4.60955078 10.88375 4 10 C3.67 12.64 3.34 15.28 3 18 C1.68 18 0.36 18 -1 18 C-1.02684312 15.18743719 -1.04676188 12.37512759 -1.0625 9.5625 C-1.07087891 8.76005859 -1.07925781 7.95761719 -1.08789062 7.13085938 C-1.0965143 5.08704779 -1.0522815 3.04316098 -1 1 C-0.67 0.67 -0.34 0.34 0 0 Z " fill="#0E0D68" transform="translate(647,32)"/>
<path d="M0 0 C3.34998521 1.11666174 3.79340222 1.74694925 5.6875 4.5625 C6.12449219 5.20316406 6.56148437 5.84382813 7.01171875 6.50390625 C7.33785156 6.99761719 7.66398438 7.49132813 8 8 C8.33 5.69 8.66 3.38 9 1 C10.32 1 11.64 1 13 1 C13 6.61 13 12.22 13 18 C12.01 18 11.02 18 10 18 C8.39453125 16.25 8.39453125 16.25 6.8125 14 C6.28269531 13.2575 5.75289062 12.515 5.20703125 11.75 C4.60955078 10.88375 4.60955078 10.88375 4 10 C3.67 12.64 3.34 15.28 3 18 C1.68 18 0.36 18 -1 18 C-1.02684312 15.18743719 -1.04676188 12.37512759 -1.0625 9.5625 C-1.07087891 8.76005859 -1.07925781 7.95761719 -1.08789062 7.13085938 C-1.0965143 5.08704779 -1.0522815 3.04316098 -1 1 C-0.67 0.67 -0.34 0.34 0 0 Z " fill="#100D66" transform="translate(547,32)"/>
<path d="M0 0 C3.5 0.5625 3.5 0.5625 5.875 2.125 C8.01937508 5.34156263 8.36500156 7.71504458 8.5 11.5625 C7.74750659 14.57247363 6.87847845 16.14196839 4.8125 18.4375 C1.36874039 20.11284251 -0.86837643 19.55294279 -4.5 18.5625 C-6.85844272 16.73660886 -7.37598548 15.39184711 -7.8125 12.47265625 C-8.0231322 8.51672025 -7.75886238 6.06987026 -5.9375 2.5 C-3.5 0.5625 -3.5 0.5625 0 0 Z M-1.5 3.5625 C-3.9282022 5.55807113 -3.9282022 5.55807113 -3.8125 9.5 C-3.75612142 12.32405426 -3.73113287 13.25432284 -2 15.5625 C-1.505 15.8925 -1.01 16.2225 -0.5 16.5625 C0.82 15.9025 2.14 15.2425 3.5 14.5625 C3.55399736 13.10457116 3.59279177 11.64607288 3.625 10.1875 C3.65980469 8.96933594 3.65980469 8.96933594 3.6953125 7.7265625 C3.71370051 5.34907757 3.71370051 5.34907757 1.5 3.5625 C0.51 3.5625 -0.48 3.5625 -1.5 3.5625 Z " fill="#0E0C60" transform="translate(342.5,59.4375)"/>
<path d="M0 0 C2.33333333 2.33333333 4.66666667 4.66666667 7 7 C7.66 4.69 8.32 2.38 9 0 C9.99 0 10.98 0 12 0 C12 6.27 12 12.54 12 19 C8.65001479 17.88333826 8.20659778 17.25305075 6.3125 14.4375 C5.87550781 13.79683594 5.43851562 13.15617187 4.98828125 12.49609375 C4.66214844 12.00238281 4.33601563 11.50867187 4 11 C3.67 13.31 3.34 15.62 3 18 C1.68 18 0.36 18 -1 18 C-1.02684312 15.18743719 -1.04676188 12.37512759 -1.0625 9.5625 C-1.07087891 8.76005859 -1.07925781 7.95761719 -1.08789062 7.13085938 C-1.0965143 5.08704779 -1.0522815 3.04316098 -1 1 C-0.67 0.67 -0.34 0.34 0 0 Z " fill="#0E0B70" transform="translate(433,32)"/>
<path d="M0 0 C3.34998521 1.11666174 3.79340222 1.74694925 5.6875 4.5625 C6.12449219 5.20316406 6.56148438 5.84382813 7.01171875 6.50390625 C7.33785156 6.99761719 7.66398437 7.49132812 8 8 C8.33 5.69 8.66 3.38 9 1 C10.32 1 11.64 1 13 1 C13 6.61 13 12.22 13 18 C12.01 18 11.02 18 10 18 C8.61328125 16.46875 8.61328125 16.46875 7.3125 14.5 C6.65701172 13.52546875 6.65701172 13.52546875 5.98828125 12.53125 C5.49908203 11.77328125 5.49908203 11.77328125 5 11 C4.67 13.31 4.34 15.62 4 18 C2.68 18 1.36 18 0 18 C0 12.06 0 6.12 0 0 Z " fill="#121368" transform="translate(352,60)"/>
<path d="M0 0 C3.34998521 1.11666174 3.79340222 1.74694925 5.6875 4.5625 C6.12449219 5.20316406 6.56148437 5.84382813 7.01171875 6.50390625 C7.33785156 6.99761719 7.66398438 7.49132813 8 8 C8.33 5.69 8.66 3.38 9 1 C10.32 0.67 11.64 0.34 13 0 C13 6.27 13 12.54 13 19 C9.25607694 17.12803847 8.39954587 16.59931881 6.25 13.375 C5.82203125 12.74335937 5.3940625 12.11171875 4.953125 11.4609375 C4.48132813 10.73777344 4.48132813 10.73777344 4 10 C4 12.64 4 15.28 4 18 C2.68 18 1.36 18 0 18 C0 12.06 0 6.12 0 0 Z " fill="#0F0C65" transform="translate(585,32)"/>
<path d="M0 0 C8 0 8 0 10.5625 1.6875 C12 4 12 4 11.8125 6.625 C11 9 11 9 10 11 C10.96885372 12.68496298 11.96986723 14.35178756 13 16 C13 16.66 13 17.32 13 18 C10.6875 17.8125 10.6875 17.8125 8 17 C6.1875 14.4375 6.1875 14.4375 5 12 C4.67 13.98 4.34 15.96 4 18 C2.68 18 1.36 18 0 18 C0 12.06 0 6.12 0 0 Z M4 3 C4 4.65 4 6.3 4 8 C5.32 7.67 6.64 7.34 8 7 C8 6.01 8 5.02 8 4 C6.68 3.67 5.36 3.34 4 3 Z " fill="#0E0A64" transform="translate(626,32)"/>
<path d="M0 0 C0.66 0.99 1.32 1.98 2 3 C1.34 3 0.68 3 0 3 C-0.02691685 5.45840605 -0.04679802 7.91651882 -0.0625 10.375 C-0.07087891 11.07367188 -0.07925781 11.77234375 -0.08789062 12.4921875 C-0.1835442 16.37295376 -0.1835442 16.37295376 1 20 C4.08142868 21.10348459 7.00234962 21.10523224 10.25 21.0625 C11.58804688 21.04896484 11.58804688 21.04896484 12.953125 21.03515625 C13.62859375 21.02355469 14.3040625 21.01195313 15 21 C15.33 20.01 15.66 19.02 16 18 C16.66 17.34 17.32 16.68 18 16 C17.01 15.67 16.02 15.34 15 15 C16.89091736 14.15557119 18.78797515 13.32488413 20.6875 12.5 C21.74324219 12.0359375 22.79898438 11.571875 23.88671875 11.09375 C26.85627816 10.05049199 28.89195063 9.76934699 32 10 C29.90074899 13.99890111 27.80503284 16.18309833 24.0625 18.6875 C23.20785156 19.26886719 22.35320312 19.85023437 21.47265625 20.44921875 C15.52195591 24.18133255 11.02299397 24.68771158 4 24 C0.25969815 22.39701349 -0.73158465 21.40262302 -3 18 C-3.90666286 11.37076375 -2.68253126 6.03569533 0 0 Z " fill="#0C0760" transform="translate(138,55)"/>
<path d="M0 0 C0.66 0.33 1.32 0.66 2 1 C1.67 1.99 1.34 2.98 1 4 C0.05125 3.95875 -0.8975 3.9175 -1.875 3.875 C-5.10244856 3.65026182 -5.10244856 3.65026182 -7 6 C-7.16677282 9.58343976 -7.16677282 9.58343976 -7 13 C-4.525 13.99 -4.525 13.99 -2 15 C-1.67 13.68 -1.34 12.36 -1 11 C-1.99 11 -2.98 11 -4 11 C-4 10.34 -4 9.68 -4 9 C-1.69 9 0.62 9 3 9 C3 11.64 3 14.28 3 17 C-0.41540279 19.10178633 -3.02251415 19.56821226 -7 19 C-10.02883418 16.95882914 -11.70071921 15.46257223 -12.44921875 11.8046875 C-12.63793143 7.86124322 -12.53487078 5.71316104 -10.125 2.5 C-6.54784126 -0.02505323 -4.37340644 -0.18222527 0 0 Z " fill="#0F0C5C" transform="translate(673,32)"/>
<path d="M0 0 C1.32 0.33 2.64 0.66 4 1 C4 5.62 4 10.24 4 15 C5.65 15 7.3 15 9 15 C9 10.38 9 5.76 9 1 C10.32 0.67 11.64 0.34 13 0 C13.10792837 2.60527105 13.18724878 5.20608311 13.25 7.8125 C13.30027344 8.91948242 13.30027344 8.91948242 13.3515625 10.04882812 C13.45006293 15.49097686 13.45006293 15.49097686 11.2109375 18.0234375 C7.89016735 19.49020877 5.45965418 18.83287971 2 18 C0 16 0 16 -0.1953125 12.3046875 C-0.182009 10.82799892 -0.15814835 9.35137642 -0.125 7.875 C-0.11146484 6.74384766 -0.11146484 6.74384766 -0.09765625 5.58984375 C-0.0740687 3.72642746 -0.03819719 1.86317407 0 0 Z " fill="#110D5F" transform="translate(379,60)"/>
<path d="M0 0 C0.66 0.33 1.32 0.66 2 1 C1.67 1.99 1.34 2.98 1 4 C0.05125 3.95875 -0.8975 3.9175 -1.875 3.875 C-5.10244856 3.65026182 -5.10244856 3.65026182 -7 6 C-7.16677282 9.58343976 -7.16677282 9.58343976 -7 13 C-4.525 13.99 -4.525 13.99 -2 15 C-1.67 13.68 -1.34 12.36 -1 11 C-1.99 11 -2.98 11 -4 11 C-4 10.34 -4 9.68 -4 9 C-1.69 9 0.62 9 3 9 C3 11.64 3 14.28 3 17 C-0.37837986 19.39301907 -3.24615144 19.17941596 -7.16015625 18.5234375 C-9 18 -9 18 -11 16.5 C-12.53191424 12.6702144 -12.69412621 9.06026516 -12 5 C-8.50748843 0.3433179 -5.65174077 -0.2354892 0 0 Z " fill="#0E0B62" transform="translate(573,32)"/>
<path d="M0 0 C1.51400391 0.01740234 1.51400391 0.01740234 3.05859375 0.03515625 C4.07050781 0.04417969 5.08242188 0.05320312 6.125 0.0625 C7.29869141 0.07990234 7.29869141 0.07990234 8.49609375 0.09765625 C8.49609375 1.08765625 8.49609375 2.07765625 8.49609375 3.09765625 C6.18609375 3.09765625 3.87609375 3.09765625 1.49609375 3.09765625 C1.49609375 4.41765625 1.49609375 5.73765625 1.49609375 7.09765625 C3.14609375 7.09765625 4.79609375 7.09765625 6.49609375 7.09765625 C6.49609375 8.08765625 6.49609375 9.07765625 6.49609375 10.09765625 C4.84609375 10.09765625 3.19609375 10.09765625 1.49609375 10.09765625 C1.49609375 11.74765625 1.49609375 13.39765625 1.49609375 15.09765625 C3.80609375 15.09765625 6.11609375 15.09765625 8.49609375 15.09765625 C8.49609375 16.08765625 8.49609375 17.07765625 8.49609375 18.09765625 C4.53609375 18.09765625 0.57609375 18.09765625 -3.50390625 18.09765625 C-3.53074937 15.28509344 -3.55066813 12.47278384 -3.56640625 9.66015625 C-3.57478516 8.85771484 -3.58316406 8.05527344 -3.59179688 7.22851562 C-3.60042055 5.18470404 -3.55618775 3.14081723 -3.50390625 1.09765625 C-2.50390625 0.09765625 -2.50390625 0.09765625 0 0 Z " fill="#120F68" transform="translate(536.50390625,31.90234375)"/>
<path d="M0 0 C0.66 0 1.32 0 2 0 C3.0063655 2.43504509 4.00526413 4.87270864 5 7.3125 C5.28617187 8.00279297 5.57234375 8.69308594 5.8671875 9.40429688 C7.08910744 12.41545674 8 14.71886984 8 18 C6.68 18 5.36 18 4 18 C3.67 17.34 3.34 16.68 3 16 C0.47266765 15.34444881 0.47266765 15.34444881 -2 15 C-2.33 15.99 -2.66 16.98 -3 18 C-4.32 18 -5.64 18 -7 18 C-5.06375702 11.79522136 -2.74390859 5.89174281 0 0 Z M0 9 C0 9.99 0 10.98 0 12 C0.66 12 1.32 12 2 12 C1.67 11.01 1.34 10.02 1 9 C0.67 9 0.34 9 0 9 Z " fill="#0E0C61" transform="translate(423,32)"/>
<path d="M0 0 C0.99 0 1.98 0 3 0 C4.00399524 2.62353518 5.00334445 5.24867795 6 7.875 C6.28617188 8.62136719 6.57234375 9.36773437 6.8671875 10.13671875 C9 15.7734375 9 15.7734375 9 18 C7.35 17.67 5.7 17.34 4 17 C4 16.34 4 15.68 4 15 C1.52733235 15.34444881 1.52733235 15.34444881 -1 16 C-1.33 16.66 -1.66 17.32 -2 18 C-3.65 18 -5.3 18 -7 18 C-4.69 12.06 -2.38 6.12 0 0 Z M1 8 C0.67 9.32 0.34 10.64 0 12 C0.99 11.67 1.98 11.34 3 11 C2.34 10.01 1.68 9.02 1 8 Z " fill="#100C61" transform="translate(517,32)"/>
<path d="M0 0 C8.7 0 8.7 0 12 3 C12.5625 6 12.5625 6 12 9 C10.25 10.875 10.25 10.875 8 12 C6.68 12 5.36 12 4 12 C4 13.98 4 15.96 4 18 C2.68 18 1.36 18 0 18 C0 12.06 0 6.12 0 0 Z M4 3 C4 4.98 4 6.96 4 9 C5.32 8.34 6.64 7.68 8 7 C7.67 6.01 7.34 5.02 7 4 C6.01 3.67 5.02 3.34 4 3 Z " fill="#120F6C" transform="translate(478,60)"/>
<path d="M0 0 C3 1 3 1 3.89135742 2.67407227 C4.12701416 3.38104248 4.3626709 4.0880127 4.60546875 4.81640625 C4.86650391 5.58017578 5.12753906 6.34394531 5.39648438 7.13085938 C5.65751953 7.93330078 5.91855469 8.73574219 6.1875 9.5625 C6.46013672 10.36880859 6.73277344 11.17511719 7.01367188 12.00585938 C7.68637481 14.00036455 8.34456415 15.99975402 9 18 C7.35 18 5.7 18 4 18 C4 17.01 4 16.02 4 15 C2.02 15 0.04 15 -2 15 C-2 15.99 -2 16.98 -2 18 C-3.65 18 -5.3 18 -7 18 C-4.69 12.06 -2.38 6.12 0 0 Z M1 9 C0.67 9.99 0.34 10.98 0 12 C0.66 12 1.32 12 2 12 C1.67 11.01 1.34 10.02 1 9 Z " fill="#100C66" transform="translate(339,32)"/>
<path d="M0 0 C0.99 0 1.98 0 3 0 C4.00399524 2.62353518 5.00334445 5.24867795 6 7.875 C6.28617188 8.62136719 6.57234375 9.36773437 6.8671875 10.13671875 C9 15.7734375 9 15.7734375 9 18 C7.35 17.67 5.7 17.34 4 17 C4 16.34 4 15.68 4 15 C1.52733235 15.34444881 1.52733235 15.34444881 -1 16 C-1.33 16.66 -1.66 17.32 -2 18 C-3.65 18 -5.3 18 -7 18 C-4.69 12.06 -2.38 6.12 0 0 Z M1 8 C0.67 9.32 0.34 10.64 0 12 C0.99 11.67 1.98 11.34 3 11 C2.34 10.01 1.68 9.02 1 8 Z " fill="#0F0C6D" transform="translate(528,60)"/>
<path d="M0 0 C0.66 0 1.32 0 2 0 C3.0063655 2.43504509 4.00526413 4.87270864 5 7.3125 C5.28617187 8.00279297 5.57234375 8.69308594 5.8671875 9.40429688 C7.08910744 12.41545674 8 14.71886984 8 18 C6.68 18 5.36 18 4 18 C3.67 17.34 3.34 16.68 3 16 C0.47266765 15.34444881 0.47266765 15.34444881 -2 15 C-2.33 15.99 -2.66 16.98 -3 18 C-4.32 18 -5.64 18 -7 18 C-5.26375242 11.5811453 -3.14819255 5.86215164 0 0 Z M0 8 C-0.33 9.32 -0.66 10.64 -1 12 C-0.01 12 0.98 12 2 12 C1.34 10.68 0.68 9.36 0 8 Z " fill="#100C65" transform="translate(402,32)"/>
<path d="M0 0 C0.66 0 1.32 0 2 0 C3.0063655 2.43504509 4.00526413 4.87270864 5 7.3125 C5.28617187 8.00279297 5.57234375 8.69308594 5.8671875 9.40429688 C7.08910744 12.41545674 8 14.71886984 8 18 C6.68 18 5.36 18 4 18 C3.67 17.34 3.34 16.68 3 16 C0.47266765 15.34444881 0.47266765 15.34444881 -2 15 C-2.33 15.99 -2.66 16.98 -3 18 C-4.32 18 -5.64 18 -7 18 C-5.26375242 11.5811453 -3.14819255 5.86215164 0 0 Z M0 8 C-0.33 9.32 -0.66 10.64 -1 12 C-0.01 12 0.98 12 2 12 C1.34 10.68 0.68 9.36 0 8 Z " fill="#110F68" transform="translate(421,60)"/>
<path d="M0 0 C1.890625 0.24609375 1.890625 0.24609375 4 1 C5.44963687 3.55850089 6.10400905 6.1776285 7 9 C8.32 6.03 9.64 3.06 11 0 C12.32 0.33 13.64 0.66 15 1 C13.02 6.61 11.04 12.22 9 18 C7.68 18 6.36 18 5 18 C4.15875684 15.75267898 3.32685168 13.50261215 2.5 11.25 C2.26152344 10.61578125 2.02304687 9.9815625 1.77734375 9.328125 C0.55198242 5.96713393 0 3.63128413 0 0 Z " fill="#161363" transform="translate(345,32)"/>
<path d="M0 0 C1.37478516 0.01740234 1.37478516 0.01740234 2.77734375 0.03515625 C3.69644531 0.04417969 4.61554687 0.05320312 5.5625 0.0625 C6.27277344 0.07410156 6.98304688 0.08570312 7.71484375 0.09765625 C8.04484375 1.08765625 8.37484375 2.07765625 8.71484375 3.09765625 C6.07484375 3.09765625 3.43484375 3.09765625 0.71484375 3.09765625 C0.71484375 4.41765625 0.71484375 5.73765625 0.71484375 7.09765625 C2.36484375 7.09765625 4.01484375 7.09765625 5.71484375 7.09765625 C6.04484375 8.08765625 6.37484375 9.07765625 6.71484375 10.09765625 C4.73484375 10.09765625 2.75484375 10.09765625 0.71484375 10.09765625 C0.71484375 11.74765625 0.71484375 13.39765625 0.71484375 15.09765625 C3.02484375 15.09765625 5.33484375 15.09765625 7.71484375 15.09765625 C8.04484375 16.08765625 8.37484375 17.07765625 8.71484375 18.09765625 C4.75484375 18.09765625 0.79484375 18.09765625 -3.28515625 18.09765625 C-3.31199937 15.28509344 -3.33191813 12.47278384 -3.34765625 9.66015625 C-3.35603516 8.85771484 -3.36441406 8.05527344 -3.37304688 7.22851562 C-3.38167055 5.18470404 -3.33743775 3.14081723 -3.28515625 1.09765625 C-2.28515625 0.09765625 -2.28515625 0.09765625 0 0 Z " fill="#0A0A61" transform="translate(603.28515625,31.90234375)"/>
<path d="M0 0 C1.953125 0.18359375 1.953125 0.18359375 4 1 C5.44963687 3.55850089 6.10400905 6.1776285 7 9 C8.32 6.03 9.64 3.06 11 0 C11.99 0 12.98 0 14 0 C13.52877252 6.9113364 10.79363994 12.72204161 8 19 C5 18 5 18 4.10864258 16.32592773 C3.87298584 15.61895752 3.6373291 14.9119873 3.39453125 14.18359375 C3.13349609 13.41982422 2.87246094 12.65605469 2.60351562 11.86914062 C2.34248047 11.06669922 2.08144531 10.26425781 1.8125 9.4375 C1.40354492 8.22803711 1.40354492 8.22803711 0.98632812 6.99414062 C0.31362519 4.99963545 -0.34456415 3.00024598 -1 1 C-0.67 0.67 -0.34 0.34 0 0 Z " fill="#110D66" transform="translate(511,60)"/>
<path d="M0 0 C3.63 0 7.26 0 11 0 C11.33 0.99 11.66 1.98 12 3 C9.36 3 6.72 3 4 3 C4 4.32 4 5.64 4 7 C5.65 7 7.3 7 9 7 C9 7.99 9 8.98 9 10 C7.35 10 5.7 10 4 10 C4 11.65 4 13.3 4 15 C6.31 15 8.62 15 11 15 C11 15.99 11 16.98 11 18 C7.37 18 3.74 18 0 18 C0 12.06 0 6.12 0 0 Z " fill="#100B66" transform="translate(613,32)"/>
<path d="M0 0 C0.66 0 1.32 0 2 0 C2.99 3.63 3.98 7.26 5 11 C5.33 7.7 5.66 4.4 6 1 C7.32 0.67 8.64 0.34 10 0 C10 5.94 10 11.88 10 18 C7.36 18 4.72 18 2 18 C1.34 16.35 0.68 14.7 0 13 C-0.66 13.99 -1.32 14.98 -2 16 C-1.25 9.25 -1.25 9.25 1 7 C0.67673447 3.40320934 0.67673447 3.40320934 0 0 Z " fill="#161466" transform="translate(599,60)"/>
<path d="M0 0 C0.66 0 1.32 0 2 0 C2.3680621 5.76630621 1.71969189 10.82320717 -1 16 C-3.13361267 18.31378441 -5.42328889 20.19983196 -8 22 C-8.33 20.68 -8.66 19.36 -9 18 C-8.34 17.67 -7.68 17.34 -7 17 C-6.34444881 14.47266765 -6.34444881 14.47266765 -6 12 C-6.66 11.67 -7.32 11.34 -8 11 C-7.875 8.25 -7.875 8.25 -7 5 C-4 2.6875 -4 2.6875 -1 1 C-0.67 0.67 -0.34 0.34 0 0 Z " fill="#090374" transform="translate(94,31)"/>
<path d="M0 0 C3.5 0.25 3.5 0.25 5.5 2.25 C5.17 2.91 4.84 3.57 4.5 4.25 C2.52 4.25 0.54 4.25 -1.5 4.25 C-3.45031608 9.19749352 -3.45031608 9.19749352 -2.5 14.25 C0.39234315 15.07638376 2.38742431 15.25 5.5 15.25 C5.17 16.24 4.84 17.23 4.5 18.25 C0.53247295 19.18353578 -1.66626382 19.66686809 -5.375 17.8125 C-8.18773194 14.42067619 -8.8215811 11.62176471 -8.5 7.25 C-6.49346441 2.85473157 -4.98261692 0.35590121 0 0 Z " fill="#0D0C68" transform="translate(328.5,59.75)"/>
<path d="M0 0 C0.66 0.66 1.32 1.32 2 2 C1.67 2.66 1.34 3.32 1 4 C-0.65 4 -2.3 4 -4 4 C-3.31735356 7.21495376 -3.31735356 7.21495376 -0.4375 8.3125 C2 10 2 10 2.5625 13 C2 16 2 16 0.4375 17.9375 C-2.96660729 19.42134164 -5.43461808 18.75421541 -9 18 C-8.505 16.515 -8.505 16.515 -8 15 C-6.35 15 -4.7 15 -3 15 C-3 14.01 -3 13.02 -3 12 C-3.804375 11.566875 -4.60875 11.13375 -5.4375 10.6875 C-8 9 -8 9 -9 6 C-9 3 -9 3 -7.9375 1.125 C-5.17898298 -0.47671956 -3.1304173 -0.33302312 0 0 Z " fill="#0F0C61" transform="translate(375,60)"/>
<path d="M0 0 C1.21875 1.640625 1.21875 1.640625 1.59375 4.203125 C1.408125 5.4096875 1.408125 5.4096875 1.21875 6.640625 C-2.00916555 8.7925687 -3.06525809 8.84148943 -6.78125 8.640625 C-3.78125 6.640625 -3.78125 6.640625 -0.78125 6.640625 C-1.44125 4.660625 -2.10125 2.680625 -2.78125 0.640625 C-5.26085136 0.78086719 -7.73977402 0.9275435 -10.21875 1.078125 C-11.27932617 1.13709961 -11.27932617 1.13709961 -12.36132812 1.19726562 C-15.86815419 1.11686938 -15.86815419 1.11686938 -18.78125 2.640625 C-20.46308948 2.87349508 -22.1524916 3.05326666 -23.84375 3.203125 C-24.76285156 3.28691406 -25.68195313 3.37070312 -26.62890625 3.45703125 C-27.69431641 3.54791016 -27.69431641 3.54791016 -28.78125 3.640625 C-28.12125 3.640625 -27.46125 3.640625 -26.78125 3.640625 C-26.12125 3.640625 -25.46125 3.640625 -24.78125 3.640625 C-24.45125 4.630625 -24.12125 5.620625 -23.78125 6.640625 C-24.44125 7.300625 -25.10125 7.960625 -25.78125 8.640625 C-25.86375 9.259375 -25.94625 9.878125 -26.03125 10.515625 C-27.20977393 13.85477613 -29.83901007 14.88780121 -32.78125 16.640625 C-31.44791667 13.97395833 -30.11458333 11.30729167 -28.78125 8.640625 C-29.44125 8.310625 -30.10125 7.980625 -30.78125 7.640625 C-30.78125 5.990625 -30.78125 4.340625 -30.78125 2.640625 C-23.62733932 -0.50076013 -6.81467511 -5.20067311 0 0 Z " fill="#0E095E" transform="translate(141.78125,30.359375)"/>
<path d="M0 0 C4.62 0 9.24 0 14 0 C14 0.99 14 1.98 14 3 C12.35 3.33 10.7 3.66 9 4 C9 8.62 9 13.24 9 18 C7.35 18 5.7 18 4 18 C4 13.05 4 8.1 4 3 C2.35 3 0.7 3 -1 3 C-0.67 2.01 -0.34 1.02 0 0 Z " fill="#0D0F61" transform="translate(611,60)"/>
<path d="M0 0 C4.62 0 9.24 0 14 0 C14.33 0.99 14.66 1.98 15 3 C13.02 3 11.04 3 9 3 C9 7.95 9 12.9 9 18 C7.68 18 6.36 18 5 18 C5 13.05 5 8.1 5 3 C3.02 3 1.04 3 -1 3 C-0.67 2.01 -0.34 1.02 0 0 Z " fill="#100F69" transform="translate(403,60)"/>
<path d="M0 0 C1.32 0.33 2.64 0.66 4 1 C4.10823773 3.24893954 4.18569645 5.49937575 4.25 7.75 C4.29640625 9.00296875 4.3428125 10.2559375 4.390625 11.546875 C4 15 4 15 2.1875 17.46875 C0 19 0 19 -3.25 18.75 C-4.1575 18.5025 -5.065 18.255 -6 18 C-6.33 16.68 -6.66 15.36 -7 14 C-6.195625 14.185625 -5.39125 14.37125 -4.5625 14.5625 C-3.716875 14.706875 -2.87125 14.85125 -2 15 C-0.05909174 13.05909174 -0.60080565 9.52706098 -0.4375 6.9375 C-0.35371094 5.64714844 -0.26992188 4.35679688 -0.18359375 3.02734375 C-0.12300781 2.02832031 -0.06242187 1.02929688 0 0 Z " fill="#120E63" transform="translate(453,32)"/>
<path d="M0 0 C0.99 0 1.98 0 3 0 C3 4.95 3 9.9 3 15 C5.31 15 7.62 15 10 15 C10.33 15.99 10.66 16.98 11 18 C7.04 18 3.08 18 -1 18 C-1.02684312 15.18743719 -1.04676188 12.37512759 -1.0625 9.5625 C-1.07087891 8.76005859 -1.07925781 7.95761719 -1.08789062 7.13085938 C-1.0965143 5.08704779 -1.0522815 3.04316098 -1 1 C-0.67 0.67 -0.34 0.34 0 0 Z " fill="#131361" transform="translate(395,60)"/>
<path d="M0 0 C0.99 0 1.98 0 3 0 C3 5.94 3 11.88 3 18 C0.03 18 -2.94 18 -6 18 C-6.66 16.68 -7.32 15.36 -8 14 C-7.34 14 -6.68 14 -6 14 C-5.67 14.66 -5.34 15.32 -5 16 C-4.01 16 -3.02 16 -2 16 C-1.93941406 14.92878906 -1.87882812 13.85757813 -1.81640625 12.75390625 C-1.73201463 11.35675609 -1.64736594 9.95962143 -1.5625 8.5625 C-1.50352539 7.50192383 -1.50352539 7.50192383 -1.44335938 6.41992188 C-1.11328125 1.11328125 -1.11328125 1.11328125 0 0 Z " fill="#151361" transform="translate(506,60)"/>
<path d="M0 0 C-0.825 0.78375 -1.65 1.5675 -2.5 2.375 C-5.22988506 4.63721264 -5.22988506 4.63721264 -5 7 C-4.34 7 -3.68 7 -3 7 C-3.47671444 9.7013818 -4.06065895 12.16681211 -5 14.75 C-5.85460496 17.52746613 -6.20520774 19.70388303 -6.4375 22.5625 C-6.78561348 26.3788552 -7.67576837 28.86733998 -10 32 C-8.9790625 31.7525 -8.9790625 31.7525 -7.9375 31.5 C-4.5835178 30.92910941 -1.39610195 30.93340977 2 31 C-1.06246747 32.78409802 -3.22079273 33.22880021 -6.75 33.125 C-7.94882813 33.09792969 -7.94882813 33.09792969 -9.171875 33.0703125 C-9.77515625 33.04710937 -10.3784375 33.02390625 -11 33 C-11.58984375 31.08203125 -11.58984375 31.08203125 -12 29 C-11.525625 28.566875 -11.05125 28.13375 -10.5625 27.6875 C-8.6453258 26.00861791 -8.6453258 26.00861791 -9.0625 22.9375 C-8.97936793 17.70017958 -7.12856282 13.72274875 -5 9 C-5.74830078 8.33871094 -5.74830078 8.33871094 -6.51171875 7.6640625 C-7.00285156 7.11492188 -7.49398437 6.56578125 -8 6 C-7.8125 3.375 -7.8125 3.375 -7 1 C-4.53721199 -0.231394 -2.7204945 -0.07159196 0 0 Z " fill="#120C5B" transform="translate(108,48)"/>
<path d="M0 0 C5.24414718 -0.31464883 8.53939419 0.16143267 13 3 C14.9375 4.8125 14.9375 4.8125 16 7 C15.875 10.125 15.875 10.125 15 13 C14.01 13.66 13.02 14.32 12 15 C12.33 12.03 12.66 9.06 13 6 C11.68 5.34 10.36 4.68 9 4 C9 4.66 9 5.32 9 6 C8.34 6 7.68 6 7 6 C7.33 6.99 7.66 7.98 8 9 C6.75686537 12.72940389 5.23014784 13.84656811 2 16 C1.01 15.67 0.02 15.34 -1 15 C-0.01 14.319375 0.98 13.63875 2 12.9375 C3.69955734 11.63344271 3.69955734 11.63344271 5 10 C5.50196294 6.28926495 5.50196294 6.28926495 5 3 C2.525 2.01 2.525 2.01 0 1 C0 0.67 0 0.34 0 0 Z " fill="#100A61" transform="translate(204,30)"/>
<path d="M0 0 C0.99 0 1.98 0 3 0 C3 5.94 3 11.88 3 18 C1.68 18 0.36 18 -1 18 C-1.02684312 15.18743719 -1.04676188 12.37512759 -1.0625 9.5625 C-1.07087891 8.76005859 -1.07925781 7.95761719 -1.08789062 7.13085938 C-1.0965143 5.08704779 -1.0522815 3.04316098 -1 1 C-0.67 0.67 -0.34 0.34 0 0 Z " fill="#110F6A" transform="translate(579,32)"/>
<path d="M0 0 C0.99 0.33 1.98 0.66 3 1 C3 6.61 3 12.22 3 18 C1.68 18 0.36 18 -1 18 C-1.02684312 15.18743719 -1.04676188 12.37512759 -1.0625 9.5625 C-1.07087891 8.76005859 -1.07925781 7.95761719 -1.08789062 7.13085938 C-1.0965143 5.08704779 -1.0522815 3.04316098 -1 1 C-0.67 0.67 -0.34 0.34 0 0 Z " fill="#0A0964" transform="translate(641,32)"/>
<path d="M0 0 C1.51400391 0.01740234 1.51400391 0.01740234 3.05859375 0.03515625 C4.07050781 0.04417969 5.08242188 0.05320312 6.125 0.0625 C7.29869141 0.07990234 7.29869141 0.07990234 8.49609375 0.09765625 C8.49609375 1.08765625 8.49609375 2.07765625 8.49609375 3.09765625 C6.18609375 3.09765625 3.87609375 3.09765625 1.49609375 3.09765625 C1.16609375 4.41765625 0.83609375 5.73765625 0.49609375 7.09765625 C0.49609375 5.44765625 0.49609375 3.79765625 0.49609375 2.09765625 C-0.49390625 2.09765625 -1.48390625 2.09765625 -2.50390625 2.09765625 C-2.50390625 7.04765625 -2.50390625 11.99765625 -2.50390625 17.09765625 C0.79609375 16.76765625 4.09609375 16.43765625 7.49609375 16.09765625 C7.49609375 16.75765625 7.49609375 17.41765625 7.49609375 18.09765625 C3.86609375 18.09765625 0.23609375 18.09765625 -3.50390625 18.09765625 C-3.53074937 15.28509344 -3.55066813 12.47278384 -3.56640625 9.66015625 C-3.57478516 8.85771484 -3.58316406 8.05527344 -3.59179688 7.22851562 C-3.60042055 5.18470404 -3.55618775 3.14081723 -3.50390625 1.09765625 C-2.50390625 0.09765625 -2.50390625 0.09765625 0 0 Z " fill="#07055A" transform="translate(536.50390625,31.90234375)"/>
<path d="M0 0 C0.33 0.66 0.66 1.32 1 2 C0.505 3.216875 0.01 4.43375 -0.5 5.6875 C-2.15912463 9.79047037 -1.87228119 12.63859406 -1 17 C-1.33 17.66 -1.66 18.32 -2 19 C-0.9275 18.484375 0.145 17.96875 1.25 17.4375 C4.25254899 15.99396683 5.83246499 15.94181906 9 17 C-1.37357631 21.59225513 -1.37357631 21.59225513 -7 21 C-6.34 19.68 -5.68 18.36 -5 17 C-4.34 17 -3.68 17 -3 17 C-3.33 16.34 -3.66 15.68 -4 15 C-4.61021235 8.89787647 -2.98435133 5.12935384 0 0 Z " fill="#0E0A5B" transform="translate(212,62)"/>
<path d="M0 0 C0.99 0 1.98 0 3 0 C3 6.27 3 12.54 3 19 C2.01 18.67 1.02 18.34 0 18 C-0.33 17.01 -0.66 16.02 -1 15 C-0.34 15 0.32 15 1 15 C0.67 13.35 0.34 11.7 0 10 C-0.33 10 -0.66 10 -1 10 C-1.02689216 8.52093108 -1.04634621 7.04172517 -1.0625 5.5625 C-1.07410156 4.73878906 -1.08570313 3.91507813 -1.09765625 3.06640625 C-1 1 -1 1 0 0 Z " fill="#12105F" transform="translate(442,32)"/>
<path d="M0 0 C1.65 0 3.3 0 5 0 C5 0.99 5 1.98 5 3 C5.020625 4.03125 5.04125 5.0625 5.0625 6.125 C5 9 5 9 4 10 C3.63239269 12.32817964 3.29758419 14.6618385 3 17 C2.67 17 2.34 17 2 17 C1.67 15.02 1.34 13.04 1 11 C0.67 11 0.34 11 0 11 C0 7.37 0 3.74 0 0 Z " fill="#09076C" transform="translate(310,33)"/>
<path d="M0 0 C0.99 0.33 1.98 0.66 3 1 C3 6.61 3 12.22 3 18 C2.01 18 1.02 18 0 18 C-0.33 17.01 -0.66 16.02 -1 15 C-0.34 15 0.32 15 1 15 C0.67 12.69 0.34 10.38 0 8 C-0.33 8 -0.66 8 -1 8 C-1.04241723 5.66705225 -1.04092937 3.33297433 -1 1 C-0.67 0.67 -0.34 0.34 0 0 Z " fill="#0E0D59" transform="translate(362,60)"/>
<path d="M0 0 C0.33 0.66 0.66 1.32 1 2 C1.55171875 1.67257813 2.1034375 1.34515625 2.671875 1.0078125 C5.38780923 -0.16787715 7.30551759 -0.20248638 10.25 -0.125 C11.14203125 -0.10695313 12.0340625 -0.08890625 12.953125 -0.0703125 C13.96632812 -0.03550781 13.96632812 -0.03550781 15 0 C14.67 1.32 14.34 2.64 14 4 C11.36 4.66 8.72 5.32 6 6 C6 4.68 6 3.36 6 2 C3.69 2.33 1.38 2.66 -1 3 C-0.67 2.01 -0.34 1.02 0 0 Z " fill="#0A055E" transform="translate(218,72)"/>
<path d="M0 0 C0.99 0.66 1.98 1.32 3 2 C3.1875 5.125 3.1875 5.125 3 8 C2.34 8 1.68 8 1 8 C0.34 10.31 -0.32 12.62 -1 15 C-1.99 14.67 -2.98 14.34 -4 14 C-4.6875 11.9375 -4.6875 11.9375 -5 10 C-4.34 9.67 -3.68 9.34 -3 9 C-2.09274566 6.88672575 -2.09274566 6.88672575 -1.375 4.4375 C-1.11460937 3.61121094 -0.85421875 2.78492188 -0.5859375 1.93359375 C-0.39257812 1.29550781 -0.19921875 0.65742187 0 0 Z " fill="#0D0965" transform="translate(598,61)"/>
<path d="M0 0 C0.99 0 1.98 0 3 0 C3 5.28 3 10.56 3 16 C2.01 15.67 1.02 15.34 0 15 C0 10.05 0 5.1 0 0 Z " fill="#110D70" transform="translate(389,60)"/>
<path d="M0 0 C0.66 0.99 1.32 1.98 2 3 C2.66 3.66 3.32 4.32 4 5 C4.66 3.68 5.32 2.36 6 1 C6 3.31 6 5.62 6 8 C5.01 8.495 5.01 8.495 4 9 C3.01 8.67 2.02 8.34 1 8 C1.33 10.31 1.66 12.62 2 15 C0.04417512 12.06626269 -1.56224304 9.21783702 -3 6 C-2.67 5.34 -2.34 4.68 -2 4 C-1.34 4 -0.68 4 0 4 C0 2.68 0 1.36 0 0 Z " fill="#130C6B" transform="translate(39,55)"/>
<path d="M0 0 C0.66 0 1.32 0 2 0 C2 1.32 2 2.64 2 4 C3.65 4 5.3 4 7 4 C7.33 4.99 7.66 5.98 8 7 C6.02 7 4.04 7 2 7 C2 8.65 2 10.3 2 12 C4.31 12 6.62 12 9 12 C9.33 12.99 9.66 13.98 10 15 C9.34 15 8.68 15 8 15 C8 14.34 8 13.68 8 13 C5.69 13 3.38 13 1 13 C0.15901344 8.98195309 -0.05404945 5.98196457 1 2 C0.34 1.67 -0.32 1.34 -1 1 C-0.67 0.67 -0.34 0.34 0 0 Z " fill="#161165" transform="translate(602,35)"/>
<path d="M0 0 C0.66 0 1.32 0 2 0 C2.33 1.32 2.66 2.64 3 4 C3.66 4 4.32 4 5 4 C6 7 6 7 5 10 C2.29120665 11.35439668 -0.00933268 11.06501451 -3 11 C-3.33 12.32 -3.66 13.64 -4 15 C-4.66 14.67 -5.32 14.34 -6 14 C-5.01 12.35 -4.02 10.7 -3 9 C-1.35 9.33 0.3 9.66 2 10 C1.34 8.35 0.68 6.7 0 5 C0.66 5 1.32 5 2 5 C2 4.34 2 3.68 2 3 C1.01 3.33 0.02 3.66 -1 4 C-0.67 2.68 -0.34 1.36 0 0 Z " fill="#0A066A" transform="translate(363,35)"/>
<path d="M0 0 C2.31 0 4.62 0 7 0 C8.1796875 1.609375 8.1796875 1.609375 9 4 C7.8828125 7.015625 7.8828125 7.015625 6.125 10.25 C5.55007812 11.32765625 4.97515625 12.4053125 4.3828125 13.515625 C3.69832031 14.74539062 3.69832031 14.74539062 3 16 C2.67 16 2.34 16 2 16 C2 13.69 2 11.38 2 9 C2.66 9 3.32 9 4 9 C4.2165625 7.576875 4.2165625 7.576875 4.4375 6.125 C5 3 5 3 6 1 C4.02 1 2.04 1 0 1 C0 0.67 0 0.34 0 0 Z " fill="#0E095C" transform="translate(231,31)"/>
<path d="M0 0 C2.31 0.66 4.62 1.32 7 2 C6 5 6 5 4.328125 5.94921875 C0.43666975 7.33170943 -2.80183483 8.39357798 -7 8 C-7 7.34 -7 6.68 -7 6 C-5.865625 5.690625 -4.73125 5.38125 -3.5625 5.0625 C-0.21224901 4.37075469 -0.21224901 4.37075469 1 3 C0.34 2.34 -0.32 1.68 -1 1 C-0.67 0.67 -0.34 0.34 0 0 Z " fill="#0A0659" transform="translate(117,71)"/>
<path d="M0 0 C0.66 0 1.32 0 2 0 C5.44419134 11.52164009 5.44419134 11.52164009 5 17 C3.68 15.68 2.36 14.36 1 13 C0.01 13.99 -0.98 14.98 -2 16 C-1.25 9.25 -1.25 9.25 1 7 C0.67673447 3.40320934 0.67673447 3.40320934 0 0 Z " fill="#18166C" transform="translate(599,60)"/>
<path d="M0 0 C0.33 1.32 0.66 2.64 1 4 C2.65 4 4.3 4 6 4 C6.33 4.99 6.66 5.98 7 7 C5.02 7 3.04 7 1 7 C1 8.65 1 10.3 1 12 C3.31 12 5.62 12 8 12 C8.33 12.99 8.66 13.98 9 15 C7.68 15 6.36 15 5 15 C5 14.34 5 13.68 5 13 C3.35 13 1.7 13 0 13 C0 8.71 0 4.42 0 0 Z " fill="#15115E" transform="translate(552,63)"/>
<path d="M0 0 C0.33 0.99 0.66 1.98 1 3 C2.65 3 4.3 3 6 3 C6.33 3.99 6.66 4.98 7 6 C5.02 6 3.04 6 1 6 C1 7.65 1 9.3 1 11 C3.31 11 5.62 11 8 11 C8.33 11.99 8.66 12.98 9 14 C8.34 14 7.68 14 7 14 C7 13.34 7 12.68 7 12 C4.69 12 2.38 12 0 12 C-0.19573608 10.56359829 -0.38127816 9.12580496 -0.5625 7.6875 C-0.66691406 6.88699219 -0.77132813 6.08648437 -0.87890625 5.26171875 C-1 3 -1 3 0 0 Z " fill="#171263" transform="translate(491,36)"/>
<path d="M0 0 C2.00948183 0.01778303 4.01668765 0.16786374 6.01953125 0.33203125 C5.68953125 1.65203125 5.35953125 2.97203125 5.01953125 4.33203125 C1.71953125 4.66203125 -1.58046875 4.99203125 -4.98046875 5.33203125 C-3.05235036 0.51173527 -3.05235036 0.51173527 0 0 Z " fill="#090273" transform="translate(127.98046875,48.66796875)"/>
<path d="M0 0 C1.32 0.99 2.64 1.98 4 3 C3.67 4.32 3.34 5.64 3 7 C2.67 6.01 2.34 5.02 2 4 C1.34 3.67 0.68 3.34 0 3 C0.33 6.96 0.66 10.92 1 15 C1.33 13.35 1.66 11.7 2 10 C2.33 10 2.66 10 3 10 C3 12.64 3 15.28 3 18 C1.68 18 0.36 18 -1 18 C-1.02684312 15.18743719 -1.04676188 12.37512759 -1.0625 9.5625 C-1.07087891 8.76005859 -1.07925781 7.95761719 -1.08789062 7.13085938 C-1.0965143 5.08704779 -1.0522815 3.04316098 -1 1 C-0.67 0.67 -0.34 0.34 0 0 Z " fill="#0F0E5E" transform="translate(433,32)"/>
<path d="M0 0 C1.98 0.99 1.98 0.99 4 2 C4.1799928 7.21979128 3.97094808 11.07262981 2 16 C4.31 16.33 6.62 16.66 9 17 C9 17.33 9 17.66 9 18 C3.53551913 18.36429872 3.53551913 18.36429872 1.27734375 16.828125 C-0.53364979 14.23624434 -0.06856999 12.64656682 0.375 9.5625 C0.86415554 6.0377027 1.11171426 3.40764588 0 0 Z " fill="#110B5E" transform="translate(75,64)"/>
<path d="M0 0 C1.125 3.75 1.125 3.75 0 6 C1.32 6.33 2.64 6.66 4 7 C2.35 7 0.7 7 -1 7 C-0.67 7.99 -0.34 8.98 0 10 C-1.65 10.33 -3.3 10.66 -5 11 C-4.55123384 9.35153231 -4.09069512 7.70626545 -3.625 6.0625 C-3.36976563 5.14597656 -3.11453125 4.22945313 -2.8515625 3.28515625 C-2 1 -2 1 0 0 Z " fill="#0C0962" transform="translate(419,67)"/>
<path d="M0 0 C0.33 0 0.66 0 1 0 C1 5.28 1 10.56 1 16 C2.32 15.34 3.64 14.68 5 14 C8.25 13.875 8.25 13.875 11 14 C11 14.99 11 15.98 11 17 C7.37 17 3.74 17 0 17 C0 11.39 0 5.78 0 0 Z " fill="#0B0851" transform="translate(569,61)"/>
<path d="M0 0 C0.66 0.33 1.32 0.66 2 1 C2 2.32 2 3.64 2 5 C2.66 5 3.32 5 4 5 C2.84826645 7.46800047 1.95216435 9.04783565 0 11 C-1.32 11 -2.64 11 -4 11 C-3.71125 10.484375 -3.4225 9.96875 -3.125 9.4375 C-1.71219973 6.37643275 -0.8751483 3.25055082 0 0 Z " fill="#191464" transform="translate(171,40)"/>
<path d="M0 0 C0.66 0 1.32 0 2 0 C2 3.63 2 7.26 2 11 C4.31 11 6.62 11 9 11 C9 11.66 9 12.32 9 13 C2.84765625 13.09765625 2.84765625 13.09765625 1 13 C0 12 0 12 -0.09765625 9.27734375 C-0.08605469 8.17519531 -0.07445312 7.07304688 -0.0625 5.9375 C-0.05347656 4.83277344 -0.04445313 3.72804687 -0.03515625 2.58984375 C-0.02355469 1.73519531 -0.01195312 0.88054688 0 0 Z " fill="#07046C" transform="translate(601,37)"/>
<path d="M0 0 C2.86632997 1.05098766 3.83006643 1.66862954 5.25 4.4375 C6 7 6 7 6 10 C4.68 10 3.36 10 2 10 C2 8.68 2 7.36 2 6 C-0.97 5.505 -0.97 5.505 -4 5 C-4 4.34 -4 3.68 -4 3 C-2.68 3.33 -1.36 3.66 0 4 C-0.33 3.01 -0.66 2.02 -1 1 C-0.67 0.67 -0.34 0.34 0 0 Z " fill="#16126D" transform="translate(425,40)"/>
<path d="M0 0 C1.79068573 2.6860286 2.66055791 4.6626589 3.625 7.6875 C3.88539063 8.49574219 4.14578125 9.30398437 4.4140625 10.13671875 C4.60742188 10.75160156 4.80078125 11.36648437 5 12 C4.34 12 3.68 12 3 12 C2.67 10.35 2.34 8.7 2 7 C-0.31 7 -2.62 7 -5 7 C-5 5.68 -5 4.36 -5 3 C-4.01 3.495 -4.01 3.495 -3 4 C-3.33 4.66 -3.66 5.32 -4 6 C-3.34 6 -2.68 6 -2 6 C-1.7834375 5.071875 -1.7834375 5.071875 -1.5625 4.125 C-1 2 -1 2 0 0 Z " fill="#171468" transform="translate(343,38)"/>
<path d="M0 0 C0.99 0 1.98 0 3 0 C2.67 4.62 2.34 9.24 2 14 C2.66 14.33 3.32 14.66 4 15 C2.68 15 1.36 15 0 15 C0 10.05 0 5.1 0 0 Z " fill="#0E0975" transform="translate(534,34)"/>
<path d="M0 0 C-0.66386719 0.31453125 -1.32773438 0.6290625 -2.01171875 0.953125 C-6.75696442 3.25301049 -11.04603186 5.44142868 -15 9 C-14.67 8.4225 -14.34 7.845 -14 7.25 C-12.72924102 4.80116138 -12.72924102 4.80116138 -13 1 C-11.58622218 0.63447197 -10.16879424 0.28304505 -8.75 -0.0625 C-7.96109375 -0.25972656 -7.1721875 -0.45695312 -6.359375 -0.66015625 C-3.89605178 -1.01497267 -2.34395868 -0.76877544 0 0 Z " fill="#0F0961" transform="translate(170,41)"/>
<path d="M0 0 C1.37344385 4.39844322 0.24307502 7.92504555 -0.9375 12.25 C-1.23043945 13.36761719 -1.23043945 13.36761719 -1.52929688 14.5078125 C-2.01104198 16.34079386 -2.50439225 18.17071818 -3 20 C-3.33 20 -3.66 20 -4 20 C-5.125 12.25 -5.125 12.25 -4 10 C-3.34 10 -2.68 10 -2 10 C-1.93941406 9.36191406 -1.87882812 8.72382812 -1.81640625 8.06640625 C-1.73261719 7.24011719 -1.64882813 6.41382813 -1.5625 5.5625 C-1.48128906 4.73878906 -1.40007813 3.91507813 -1.31640625 3.06640625 C-1 1 -1 1 0 0 Z " fill="#110B61" transform="translate(58,44)"/>
<path d="M0 0 C0.33 0 0.66 0 1 0 C1 5.61 1 11.22 1 17 C-0.65 17 -2.3 17 -4 17 C-4.625 14.625 -4.625 14.625 -5 12 C-4.34 11.34 -3.68 10.68 -3 10 C-2.67 11.98 -2.34 13.96 -2 16 C-1.34 16 -0.68 16 0 16 C0 10.72 0 5.44 0 0 Z " fill="#100F58" transform="translate(605,61)"/>
<path d="M0 0 C0.66 0 1.32 0 2 0 C2.33 4.62 2.66 9.24 3 14 C2.01 14.33 1.02 14.66 0 15 C0 10.05 0 5.1 0 0 Z " fill="#090A74" transform="translate(395,62)"/>
<path d="M0 0 C3.26011642 0.69378511 4.79038253 1.45893991 7 4 C7.66 3.34 8.32 2.68 9 2 C9 4.31 9 6.62 9 9 C8.01 9 7.02 9 6 9 C4.39453125 7.03125 4.39453125 7.03125 2.8125 4.5 C2.28269531 3.6646875 1.75289063 2.829375 1.20703125 1.96875 C0.80871094 1.3190625 0.41039062 0.669375 0 0 Z " fill="#0A0669" transform="translate(476,40)"/>
<path d="M0 0 C3.63 0 7.26 0 11 0 C11.33 0.99 11.66 1.98 12 3 C8.37 2.34 4.74 1.68 1 1 C1 6.28 1 11.56 1 17 C0.67 17 0.34 17 0 17 C0 11.39 0 5.78 0 0 Z " fill="#100F52" transform="translate(613,32)"/>
<path d="M0 0 C0.33 0.99 0.66 1.98 1 3 C3.64 3.33 6.28 3.66 9 4 C8.67 4.99 8.34 5.98 8 7 C8 6.34 8 5.68 8 5 C5.52733235 5.34444881 5.52733235 5.34444881 3 6 C2.67 6.66 2.34 7.32 2 8 C0.35 8 -1.3 8 -3 8 C-2.01 5.36 -1.02 2.72 0 0 Z " fill="#0F0D5C" transform="translate(524,70)"/>
<path d="M0 0 C1.98 0 3.96 0 6 0 C6.99 2.31 7.98 4.62 9 7 C8.01 7.495 8.01 7.495 7 8 C7 6.68 7 5.36 7 4 C4.69 3.67 2.38 3.34 0 3 C0 2.01 0 1.02 0 0 Z " fill="#0D096F" transform="translate(493,60)"/>
<path d="M0 0 C3.15140423 0.34069235 4.60781561 0.58076841 6.8125 2.9375 C8 5 8 5 8 7 C5.6875 6.875 5.6875 6.875 3 6 C1.1875 2.9375 1.1875 2.9375 0 0 Z " fill="#110C5D" transform="translate(377,43)"/>
<path d="M0 0 C0.99 0 1.98 0 3 0 C3.33 2.31 3.66 4.62 4 7 C2.35 7 0.7 7 -1 7 C-1.04254356 5.00045254 -1.04080783 2.99958364 -1 1 C-0.67 0.67 -0.34 0.34 0 0 Z " fill="#1B1970" transform="translate(327,43)"/>
<path d="M0 0 C1.65 1.65 3.3 3.3 5 5 C4.01 5.66 3.02 6.32 2 7 C2 6.01 2 5.02 2 4 C0.8553125 4.7425 0.8553125 4.7425 -0.3125 5.5 C-3 7 -3 7 -6 7 C-4.02 4.69 -2.04 2.38 0 0 Z " fill="#0C0858" transform="translate(79,42)"/>
<path d="M0 0 C0 3.95875396 -1.21313946 6.49009536 -3 10 C-5.1875 11.4375 -5.1875 11.4375 -7 12 C-5.63855967 6.80177328 -3.53269829 3.90456127 0 0 Z " fill="#100C61" transform="translate(146,42)"/>
<path d="M0 0 C0.66 0 1.32 0 2 0 C2.76173392 4.3164922 3.16063604 7.74433453 2 12 C0.68 11.34 -0.64 10.68 -2 10 C-1.34 10 -0.68 10 0 10 C0 6.7 0 3.4 0 0 Z " fill="#0A066F" transform="translate(557,34)"/>
<path d="M0 0 C3.625 -0.1875 3.625 -0.1875 7 0 C7.33 0.99 7.66 1.98 8 3 C4.7 3 1.4 3 -2 3 C-1.34 2.01 -0.68 1.02 0 0 Z " fill="#0F095A" transform="translate(398,75)"/>
<path d="M0 0 C1.125 3.75 1.125 3.75 0 6 C3.3 5.67 6.6 5.34 10 5 C9.01 6.485 9.01 6.485 8 8 C1.875 8.4375 1.875 8.4375 -1 7 C-0.67 4.69 -0.34 2.38 0 0 Z " fill="#0C0956" transform="translate(172,71)"/>
<path d="M0 0 C0.33 0.99 0.66 1.98 1 3 C2.32 2.01 3.64 1.02 5 0 C4.25 4.75 4.25 4.75 2 7 C-0.125 6.625 -0.125 6.625 -2 6 C-1.34 4.02 -0.68 2.04 0 0 Z " fill="#0A0566" transform="translate(83,74)"/>
<path d="M0 0 C0.33 0 0.66 0 1 0 C1 3.3 1 6.6 1 10 C-0.32 9.67 -1.64 9.34 -3 9 C-2.44271087 5.65626525 -1.64826111 2.96687001 0 0 Z " fill="#090A6E" transform="translate(362,65)"/>
<path d="M0 0 C0.99 0 1.98 0 3 0 C3.53229326 1.26607607 4.05044544 2.53810412 4.5625 3.8125 C4.85253906 4.52019531 5.14257812 5.22789063 5.44140625 5.95703125 C6 8 6 8 5 11 C4.01 11 3.02 11 2 11 C2.04125 9.9275 2.0825 8.855 2.125 7.75 C2.0114175 4.34252515 1.78726636 2.79260369 0 0 Z " fill="#0E0F60" transform="translate(528,60)"/>
<path d="M0 0 C1.65 0 3.3 0 5 0 C5.99 1.98 6.98 3.96 8 6 C5.6875 5.8125 5.6875 5.8125 3 5 C1.1875 2.4375 1.1875 2.4375 0 0 Z " fill="#14105D" transform="translate(316,44)"/>
<path d="M0 0 C0.66 0 1.32 0 2 0 C2 3.3 2 6.6 2 10 C0.35 10.33 -1.3 10.66 -3 11 C-2.34 10.34 -1.68 9.68 -1 9 C-0.53993654 6.79749008 -0.53993654 6.79749008 -0.375 4.375 C-0.30023438 3.55773437 -0.22546875 2.74046875 -0.1484375 1.8984375 C-0.09945313 1.27195312 -0.05046875 0.64546875 0 0 Z " fill="#0D0772" transform="translate(347,66)"/>
<path d="M0 0 C0.99 0 1.98 0 3 0 C3 1.98 3 3.96 3 6 C3.66 6.33 4.32 6.66 5 7 C3.35 7.33 1.7 7.66 0 8 C0 8.99 0 9.98 0 11 C-0.66 11 -1.32 11 -2 11 C-0.8905928 7.51329166 0.26337666 4.22515763 2 1 C1.34 0.67 0.68 0.34 0 0 Z " fill="#110E5E" transform="translate(187,39)"/>
<path d="M0 0 C0.99 0.33 1.98 0.66 3 1 C3.33 1.99 3.66 2.98 4 4 C3.01 4 2.02 4 1 4 C1 8.29 1 12.58 1 17 C0.67 17 0.34 17 0 17 C0 11.39 0 5.78 0 0 Z " fill="#14125A" transform="translate(473,32)"/>
<path d="M0 0 C2.475 0.495 2.475 0.495 5 1 C5.92844389 5.33273814 5.92844389 8.66726186 5 13 C4.67 13 4.34 13 4 13 C3.67 9.04 3.34 5.08 3 1 C2.01 0.67 1.02 0.34 0 0 Z " fill="#0C075C" transform="translate(55,30)"/>
<path d="M0 0 C3.3 0 6.6 0 10 0 C10.33 0.99 10.66 1.98 11 3 C8.69 3 6.38 3 4 3 C4 2.34 4 1.68 4 1 C2.68 0.67 1.36 0.34 0 0 Z " fill="#111061" transform="translate(550,60)"/>
<path d="M0 0 C1.31534494 3.65857532 0.65468309 6.08026481 -0.4375 9.75 C-0.86869141 11.22726563 -0.86869141 11.22726563 -1.30859375 12.734375 C-1.53675781 13.48203125 -1.76492187 14.2296875 -2 15 C-2.33 15 -2.66 15 -3 15 C-2.67 10.71 -2.34 6.42 -2 2 C-1.34 2 -0.68 2 0 2 C0 1.34 0 0.68 0 0 Z " fill="#120B5E" transform="translate(91,58)"/>
<path d="M0 0 C1.22268689 4.89074757 0.20961767 7.58076466 -2 12 C-2.66 12 -3.32 12 -4 12 C-4.33 10.02 -4.66 8.04 -5 6 C-4.67 6.66 -4.34 7.32 -4 8 C-3.34 8 -2.68 8 -2 8 C-1.34 5.36 -0.68 2.72 0 0 Z " fill="#08046B" transform="translate(355,37)"/>
<path d="M0 0 C0.99 0 1.98 0 3 0 C1.25 5.75 1.25 5.75 -1 8 C-1.66 6.68 -2.32 5.36 -3 4 C-1.6875 2 -1.6875 2 0 0 Z " fill="#15115E" transform="translate(511,32)"/>
<path d="M0 0 C0.66 0 1.32 0 2 0 C2 2.64 2 5.28 2 8 C1.01 8 0.02 8 -1 8 C-1.04241723 5.66705225 -1.04092937 3.33297433 -1 1 C-0.67 0.67 -0.34 0.34 0 0 Z " fill="#080756" transform="translate(354,70)"/>
<path d="M0 0 C-2.625 4.875 -2.625 4.875 -6 6 C-6.33 4.35 -6.66 2.7 -7 1 C-4.53721199 -0.231394 -2.7204945 -0.07159196 0 0 Z " fill="#120F5E" transform="translate(170,65)"/>
<path d="M0 0 C0.33 0 0.66 0 1 0 C1 5.28 1 10.56 1 16 C-0.32 14.68 -1.64 13.36 -3 12 C-2.01 11.67 -1.02 11.34 0 11 C0 7.37 0 3.74 0 0 Z " fill="#050469" transform="translate(441,61)"/>
<path d="M0 0 C0.99 0.33 1.98 0.66 3 1 C2.67 1.99 2.34 2.98 2 4 C-0.31 4.33 -2.62 4.66 -5 5 C-4.34 4.67 -3.68 4.34 -3 4 C-3 3.34 -3 2.68 -3 2 C-2.01 1.34 -1.02 0.68 0 0 Z " fill="#120E58" transform="translate(331,74)"/>
<path d="M0 0 C2.875 -0.125 2.875 -0.125 6 0 C6.66 0.66 7.32 1.32 8 2 C7.67 2.66 7.34 3.32 7 4 C4.69 4 2.38 4 0 4 C0 2.68 0 1.36 0 0 Z " fill="#151560" transform="translate(326,60)"/>
<path d="M0 0 C0.99 0.33 1.98 0.66 3 1 C2.67 1.845625 2.34 2.69125 2 3.5625 C0.93894046 7.20989216 0.84890987 10.22274664 1 14 C0.34 14 -0.32 14 -1 14 C-1.18451025 4.58997722 -1.18451025 4.58997722 0 0 Z " fill="#110D5A" transform="translate(149,56)"/>
<path d="M0 0 C1.98 0.495 1.98 0.495 4 1 C3.01 1.495 3.01 1.495 2 2 C1.34786708 4.02463255 1.34786708 4.02463255 1 6 C1.99 6 2.98 6 4 6 C4.33 5.34 4.66 4.68 5 4 C5 4.99 5 5.98 5 7 C3.35 7 1.7 7 0 7 C-1.125 2.25 -1.125 2.25 0 0 Z " fill="#171076" transform="translate(516,38)"/>
<path d="M0 0 C0.99 0 1.98 0 3 0 C3.33 1.98 3.66 3.96 4 6 C2.68 6 1.36 6 0 6 C0 4.02 0 2.04 0 0 Z " fill="#090C5E" transform="translate(301,32)"/>
<path d="M0 0 C1.04449911 3.13349732 0.93423645 3.98968256 0 7 C-0.99 6.67 -1.98 6.34 -3 6 C-3.6875 3.9375 -3.6875 3.9375 -4 2 C-2.68 1.34 -1.36 0.68 0 0 Z " fill="#0C0975" transform="translate(597,69)"/>
<path d="M0 0 C0.33 0 0.66 0 1 0 C1 1.65 1 3.3 1 5 C2.65 5.33 4.3 5.66 6 6 C6 6.99 6 7.98 6 9 C5.01 8.67 4.02 8.34 3 8 C3 7.34 3 6.68 3 6 C1.68 6 0.36 6 -1 6 C-0.67 4.02 -0.34 2.04 0 0 Z " fill="#151070" transform="translate(629,35)"/>
<path d="M0 0 C3.3776758 1.12589193 4.71363192 2.31943052 7 5 C7 5.99 7 6.98 7 8 C6.01 7.67 5.02 7.34 4 7 C4 6.34 4 5.68 4 5 C3.34 5 2.68 5 2 5 C1.34 3.35 0.68 1.7 0 0 Z " fill="#0B0768" transform="translate(496,69)"/>
<path d="M0 0 C0.33 0 0.66 0 1 0 C1 2.97 1 5.94 1 9 C-3 7 -3 7 -4 4 C-3.01 4.33 -2.02 4.66 -1 5 C-0.67 3.35 -0.34 1.7 0 0 Z " fill="#120D5A" transform="translate(597,42)"/>
<path d="M0 0 C0.99 0 1.98 0 3 0 C3.33 2.31 3.66 4.62 4 7 C3.34 7 2.68 7 2 7 C1.34 4.69 0.68 2.38 0 0 Z " fill="#0E096C" transform="translate(346,33)"/>
<path d="M0 0 C-0.33 0.99 -0.66 1.98 -1 3 C-1.33 3 -1.66 3 -2 3 C-2.33 4.65 -2.66 6.3 -3 8 C-3.99 7.01 -4.98 6.02 -6 5 C-3.74193548 0 -3.74193548 0 0 0 Z " fill="#130F60" transform="translate(190,31)"/>
<path d="M0 0 C2.16874252 0.50603992 3.99967627 0.99983813 6 2 C6 2.66 6 3.32 6 4 C3.03 3.505 3.03 3.505 0 3 C0 2.01 0 1.02 0 0 Z " fill="#0C084F" transform="translate(459,75)"/>
<path d="M0 0 C0.99 0.33 1.98 0.66 3 1 C3.33 2.65 3.66 4.3 4 6 C3.34 5.67 2.68 5.34 2 5 C1.34 6.32 0.68 7.64 0 9 C0 6.03 0 3.06 0 0 Z " fill="#06056D" transform="translate(353,62)"/>
<path d="M0 0 C0.99 0.33 1.98 0.66 3 1 C3 2.65 3 4.3 3 6 C1.68 5.67 0.36 5.34 -1 5 C-0.67 3.35 -0.34 1.7 0 0 Z " fill="#080769" transform="translate(672,42)"/>
<path d="M0 0 C0.66 0 1.32 0 2 0 C3.0625 1.8125 3.0625 1.8125 4 4 C3.67 4.99 3.34 5.98 3 7 C2.67 5.68 2.34 4.36 2 3 C1.34 3 0.68 3 0 3 C-0.33 3.99 -0.66 4.98 -1 6 C-1.33 5.34 -1.66 4.68 -2 4 C-1.0625 1.875 -1.0625 1.875 0 0 Z " fill="#16165F" transform="translate(363,32)"/>
<path d="M0 0 C5.75 -0.125 5.75 -0.125 8 1 C7.67 1.99 7.34 2.98 7 4 C3.73045798 3.43628586 2.17424117 2.50037734 0 0 Z " fill="#14115A" transform="translate(567,32)"/>
<path d="M0 0 C0.33 1.32 0.66 2.64 1 4 C-0.65 4.33 -2.3 4.66 -4 5 C-3.6875 3.0625 -3.6875 3.0625 -3 1 C-2.01 0.67 -1.02 0.34 0 0 Z " fill="#090375" transform="translate(66,63)"/>
<path d="M0 0 C2.475 0.495 2.475 0.495 5 1 C5 3.64 5 6.28 5 9 C3.05731159 6.08596738 1.53604696 3.14191424 0 0 Z " fill="#110C5C" transform="translate(36,61)"/>
<path d="M0 0 C0.66 0.99 1.32 1.98 2 3 C1.67 3.99 1.34 4.98 1 6 C0.01 5.67 -0.98 5.34 -2 5 C-2 3.68 -2 2.36 -2 1 C-1.34 0.67 -0.68 0.34 0 0 Z " fill="#080571" transform="translate(424,35)"/>
</svg>
